<?xml version="1.0" standalone="no"?>
<!DOCTYPE svg PUBLIC "-//W3C//DTD SVG 20010904//EN"
 "http://www.w3.org/TR/2001/REC-SVG-20010904/DTD/svg10.dtd">
<svg version="1.0" xmlns="http://www.w3.org/2000/svg"
 width="103.000000pt" height="103.000000pt" viewBox="0 0 103.000000 103.000000"
 preserveAspectRatio="xMidYMid meet">
<metadata>
Created by potrace 1.11, written by Peter Selinger 2001-2013
</metadata>
<g transform="translate(0.000000,103.000000) scale(0.100000,-0.100000)"
fill="#000000" stroke="none">
<path d="M219 963 c-8 -10 -30 -40 -48 -66 l-33 -49 57 -129 c32 -71 61 -131
65 -134 7 -4 136 70 145 85 3 5 -17 52 -45 105 -27 53 -50 99 -50 102 0 3 15
-8 33 -23 32 -29 33 -29 160 -28 117 1 129 3 146 23 35 40 31 21 -16 -74 -38
-76 -45 -99 -37 -113 6 -9 15 -16 20 -15 5 1 16 -4 24 -12 8 -7 32 -22 52 -33
28 -16 39 -18 46 -9 16 19 112 237 112 254 0 8 -21 41 -46 74 l-45 59 -263 0
c-238 0 -264 -2 -277 -17z"/>
<path d="M380 622 c-68 -33 -116 -82 -148 -152 -68 -147 3 -324 156 -387 71
-30 178 -26 240 8 106 58 157 142 157 259 -1 123 -59 215 -167 265 l-52 24
-18 -31 c-21 -33 -18 -40 14 -45 55 -9 128 -82 147 -150 5 -16 7 -50 6 -76
-14 -197 -270 -278 -389 -123 -69 90 -63 208 13 287 39 39 103 74 115 62 18
-18 3 30 -16 51 -23 24 -24 24 -58 8z"/>
<path d="M490 512 c-33 -11 -72 -46 -91 -84 -59 -116 10 -233 116 -198 28 9
39 9 50 0 23 -19 63 -5 60 22 -3 32 -3 32 -20 18 -12 -10 -15 -10 -15 2 0 8 4
18 9 23 6 6 14 29 19 53 10 43 -2 72 -30 72 -5 0 -7 7 -4 16 10 26 -4 62 -27
69 -32 10 -51 12 -67 7z m50 -52 c0 -5 -7 -7 -16 -3 -12 4 -15 0 -12 -18 1
-13 9 -25 16 -25 6 -1 17 -2 22 -3 12 -1 13 -61 1 -80 -6 -10 -13 -10 -29 -2
-29 15 -49 -10 -21 -27 25 -16 24 -28 -2 -35 -29 -8 -59 26 -59 66 0 51 19
105 43 122 24 17 57 20 57 5z"/>
</g>
</svg>
