<?xml version="1.0" encoding="iso-8859-1"?>
<!-- Generator: Adobe Illustrator 19.0.0, SVG Export Plug-In . SVG Version: 6.00 Build 0)  -->
<svg version="1.1" id="Layer_1" xmlns="http://www.w3.org/2000/svg" xmlns:xlink="http://www.w3.org/1999/xlink" x="0px" y="0px"
	 viewBox="0 0 464.137 464.137" style="enable-background:new 0 0 464.137 464.137;" xml:space="preserve">
<g transform="translate(0 -1020.36)">
	<g shape-rendering="auto" image-rendering="auto" color-rendering="auto" color-interpolation="sRGB">
		<path style="fill:#5A3392;" d="M232.317,1020.36v0.16c-8.32,0-16.652,2.021-24.125,6.251
			c-10.211,5.781-17.648,15.047-21.375,25.749h-34.719v15.969l-104.062,0.256l1.25,290.375h16v40H49.442l0.374,85.377h365.781
			l0.312-255.906h-15.906v-40h15.938l0.16-119.969l-103.969-0.191v-15.97H204.226c2.776-4.807,6.824-8.938,11.906-11.813
			c4.989-2.802,10.551-4.198,16.125-4.188c5.576,0.013,11.137,1.44,16.094,4.313c2.42,1.392,4.587,3.098,6.5,4.998l15.625-6.188
			c-3.768-5.033-8.445-9.427-14.094-12.687c-7.433-4.294-15.742-6.458-24.063-6.501L232.317,1020.36z"/>
		<path style="fill:#EE746C;" d="M152.082,1084.454v16.063h160.031v-15.938h88.031l-0.484,383.969H65.754l-1.627-383.875
			L152.082,1084.454z"/>
		<path style="fill:#FB9761;" d="M157.683,1097.889v14.939h148.836v-14.822h81.872l-0.423,357.105H77.42l-1.512-357.02
			L157.683,1097.889z"/>
		<path style="fill:#5A3392;" d="M88.073,1228.54v7.914v200.078h288.071V1228.54H88.073z"/>
		<g>
			<path style="fill:#FFFFFF;" d="M104.135,1244.487h255.945v175.984H104.135L104.135,1244.487L104.135,1244.487z"/>
			<path style="fill:#FFFFFF;" d="M232.049,1132.518c-17.578,0-32.007,14.43-32.008,32.006c0,17.58,14.43,32.008,32.008,32.008
				c17.579,0,32.008-14.43,32.008-32.008C264.057,1146.946,249.627,1132.516,232.049,1132.518z M232.049,1148.462
				c8.931,0,16.063,7.131,16.063,16.063c0.001,8.934-7.132,15.945-16.063,15.945c-8.931,0-15.945-7.014-15.945-15.945
				S223.118,1148.462,232.049,1148.462z"/>
			<path style="fill:#FFFFFF;" d="M279.293,1132.518c-4.117,0.412-7.241,3.895-7.205,8.031v31.063c-0.049,0.51-0.049,1.025,0,1.535
				v15.236c-0.372,4.402,2.896,8.273,7.299,8.646c4.403,0.371,8.274-2.896,8.646-7.299c0.038-0.449,0.038-0.898,0-1.348v-3.072
				l20.315,10.156c3.96,1.963,8.761,0.342,10.723-3.619c1.943-3.92,0.375-8.674-3.518-10.672l-17.599-8.857l17.599-8.74
				c2.668-1.357,4.355-4.092,4.372-7.086v-15.943c0.017-4.396-3.517-7.982-7.913-8.031h-31.89
				C279.846,1132.505,279.57,1132.505,279.293,1132.518L279.293,1132.518z M288.033,1148.462h15.945v3.072l-15.945,7.914v-10.984
				V1148.462z"/>
			<path style="fill:#FFFFFF;" d="M186.931,1134.88c-13.019-5.613-28.235-1.137-36.614,10.395
				c-8.384,11.527-8.245,27.287,0.242,38.74c8.484,11.451,23.649,15.658,36.614,9.92c4.149-1.52,6.281-6.115,4.761-10.264
				c-1.52-4.15-6.115-6.281-10.264-4.762c-0.299,0.109-0.591,0.236-0.874,0.381c-6.194,2.738-13.213,0.912-17.48-4.846
				c-4.263-5.764-4.221-14.039,0-19.844c4.215-5.805,11.147-7.639,17.362-4.959c4.082,1.717,8.783-0.199,10.5-4.279
				c1.711-4.066-0.184-8.752-4.24-10.484L186.931,1134.88z"/>
			<g>
				<path style="fill:#FFFFFF;" d="M335.277,1132.518c-4.117,0.412-7.241,3.895-7.205,8.031v47.953
					c-0.017,4.418,3.552,8.014,7.97,8.031c0.02,0,0.041,0,0.061,0h31.89c4.436-0.021,8.014-3.635,7.992-8.07
					c-0.021-4.404-3.587-7.971-7.992-7.992h-23.859v-32.008h23.859c4.403,0.377,8.277-2.887,8.654-7.289
					c0.377-4.402-2.887-8.277-7.29-8.654c-0.454-0.039-0.91-0.039-1.364,0h-31.89c-0.276-0.014-0.553-0.014-0.828,0
					L335.277,1132.518z"/>
				<path style="fill:#FFFFFF;" d="M339.293,1156.495c-4.438,0.186-7.886,3.932-7.701,8.369c0.185,4.439,3.932,7.887,8.37,7.701
					c0.053-0.002,0.106-0.004,0.159-0.008h11.811c4.436-0.045,7.996-3.676,7.951-8.111c-0.043-4.373-3.578-7.908-7.951-7.951
					h-11.811C339.846,1156.481,339.569,1156.481,339.293,1156.495z"/>
				<path style="fill:#FFFFFF;" d="M95.395,1132.518c-4.399,0.418-7.627,4.322-7.21,8.721c0.125,1.316,0.574,2.582,1.307,3.682
					l23.504,35.551H96.226c-4.436-0.021-8.049,3.557-8.07,7.992s3.557,8.049,7.992,8.07c0.026,0,0.052,0,0.078,0h31.772
					c4.419-0.037,7.97-3.648,7.933-8.068c-0.013-1.541-0.471-3.047-1.319-4.334l-23.622-35.668h17.008
					c4.403,0.377,8.277-2.887,8.654-7.289s-2.887-8.277-7.29-8.654c-0.454-0.039-0.91-0.039-1.364,0H96.226
					c-0.276-0.014-0.553-0.014-0.828,0L95.395,1132.518z"/>
			</g>
		</g>
		<path style="fill:#3CDEF6;" d="M168.02,1068.516h112.094h15.938v15.938H168.02V1068.516z"/>
		<path style="fill:#EBFEFF;" d="M113.391,1250.85h237.435v163.256H113.391L113.391,1250.85L113.391,1250.85z"/>
		<g>
			<path style="fill:#5A3392;" d="M92.089,1356.454v16.064h280.039v-16.064C372.128,1356.454,92.089,1356.454,92.089,1356.454z"/>
			<path style="fill:#5A3392;" d="M92.089,1292.557v15.943h280.039v-15.943C372.128,1292.557,92.089,1292.557,92.089,1292.557z"/>
			<path style="fill:#5A3392;" d="M136.144,1232.557v199.961h15.945v-199.961H136.144z"/>
			<path style="fill:#5A3392;" d="M312.128,1232.557v199.961h15.945v-199.961H312.128z"/>
			<path style="fill:#5A3392;" d="M264.057,1232.557v199.961h16.063v-199.961H264.057z"/>
		</g>
	</g>
	<g>
		<path style="fill:#5A3392;" d="M49.272,1371.085h16v16h-16V1371.085z"/>
		<path style="fill:#5A3392;" d="M416.019,1200.542h-16v16h16V1200.542z"/>
	</g>
</g>
<g>
</g>
<g>
</g>
<g>
</g>
<g>
</g>
<g>
</g>
<g>
</g>
<g>
</g>
<g>
</g>
<g>
</g>
<g>
</g>
<g>
</g>
<g>
</g>
<g>
</g>
<g>
</g>
<g>
</g>
</svg>
